<svg width="45" height="45" viewBox="0 0 45 45" fill="none" xmlns="http://www.w3.org/2000/svg">
<rect width="45" height="45" rx="21" fill="#E5E7EB"/>
<path d="M29.5 31.5V29.5C29.5 28.4391 29.0786 27.4217 28.3284 26.6716C27.5783 25.9214 26.5609 25.5 25.5 25.5H19.5C18.4391 25.5 17.4217 25.9214 16.6716 26.6716C15.9214 27.4217 15.5 28.4391 15.5 29.5V31.5M26.5 17.5C26.5 19.7091 24.7091 21.5 22.5 21.5C20.2909 21.5 18.5 19.7091 18.5 17.5C18.5 15.2909 20.2909 13.5 22.5 13.5C24.7091 13.5 26.5 15.2909 26.5 17.5Z" stroke="black" stroke-width="2" stroke-linecap="round" stroke-linejoin="round"/>
</svg>
