<svg width="15" height="15" viewBox="0 0 15 15" fill="none" xmlns="http://www.w3.org/2000/svg">
<g clip-path="url(#clip0_623_1561)">
<path d="M10.9998 12.75C10.9998 11.5123 10.5082 10.3253 9.633 9.45017C8.75783 8.575 7.57085 8.08333 6.33317 8.08333M6.33317 8.08333C5.09549 8.08333 3.90851 8.575 3.03334 9.45017C2.15817 10.3253 1.6665 11.5123 1.6665 12.75M6.33317 8.08333C7.944 8.08333 9.24984 6.7775 9.24984 5.16667C9.24984 3.55584 7.944 2.25 6.33317 2.25C4.72234 2.25 3.4165 3.55584 3.4165 5.16667C3.4165 6.7775 4.72234 8.08333 6.33317 8.08333ZM13.3332 12.1666C13.3332 10.2008 12.1665 8.37497 10.9999 7.49997C11.3834 7.21225 11.69 6.83444 11.8927 6.39996C12.0954 5.96548 12.1878 5.48774 12.1619 5.00902C12.1359 4.5303 11.9924 4.06535 11.7439 3.65534C11.4954 3.24532 11.1497 2.90287 10.7374 2.6583" stroke="#6B7280" stroke-width="2" stroke-linecap="round" stroke-linejoin="round"/>
</g>
<defs>
<clipPath id="clip0_623_1561">
<rect width="14" height="14" fill="white" transform="translate(0.5 0.5)"/>
</clipPath>
</defs>
</svg>
