<svg width="20" height="20" viewBox="0 0 20 20" fill="none" xmlns="http://www.w3.org/2000/svg">
<g clip-path="url(#clip0_1001_2149)">
<path d="M8.33335 10.8332C8.69123 11.3117 9.14782 11.7075 9.67215 11.994C10.1965 12.2805 10.7763 12.4508 11.3722 12.4935C11.9682 12.5362 12.5663 12.4502 13.1261 12.2414C13.6859 12.0326 14.1943 11.7058 14.6167 11.2832L17.1167 8.78322C17.8757 7.99738 18.2957 6.94487 18.2862 5.85238C18.2767 4.7599 17.8385 3.71485 17.0659 2.94231C16.2934 2.16978 15.2483 1.73157 14.1559 1.72208C13.0634 1.71259 12.0109 2.13256 11.225 2.89156L9.79169 4.31656M11.6667 9.16657C11.3088 8.68813 10.8522 8.29225 10.3279 8.00579C9.80353 7.71932 9.22373 7.54897 8.62778 7.50629C8.03182 7.46361 7.43366 7.5496 6.87386 7.75842C6.31406 7.96724 5.80572 8.29401 5.38332 8.71657L2.88332 11.2166C2.12432 12.0024 1.70435 13.0549 1.71384 14.1474C1.72334 15.2399 2.16154 16.2849 2.93407 17.0575C3.70661 17.83 4.75166 18.2682 5.84415 18.2777C6.93663 18.2872 7.98914 17.8672 8.77498 17.1082L10.2 15.6832" stroke="#6B7280" stroke-width="2" stroke-linecap="round" stroke-linejoin="round"/>
</g>
<defs>
<clipPath id="clip0_1001_2149">
<rect width="20" height="20" fill="white"/>
</clipPath>
</defs>
</svg>
