<svg width="217" height="30" viewBox="0 0 217 30" fill="none" xmlns="http://www.w3.org/2000/svg">
<path d="M23.1511 0.999998V29H18.6711L5.3511 9.36V29H0.911095V0.999998H5.3511L18.6711 21.12V0.999998H23.1511ZM43.3267 5.76C42.7401 5.52 42.0867 5.32 41.3667 5.16C40.6467 5 39.9267 4.88 39.2067 4.8C38.4867 4.72 37.7801 4.68 37.0867 4.68C36.5534 4.68 35.9801 4.72 35.3667 4.8C34.7801 4.88 34.2067 5.02666 33.6467 5.24C33.1134 5.45333 32.6734 5.74667 32.3267 6.12C31.9801 6.46667 31.8067 6.92 31.8067 7.48C31.8067 8.06667 32.0201 8.58667 32.4467 9.04C32.9001 9.46667 33.4867 9.86667 34.2067 10.24C34.9534 10.6133 35.7934 10.9733 36.7267 11.32C37.6601 11.6667 38.6201 12.0533 39.6067 12.48C40.6201 12.88 41.5801 13.3333 42.4867 13.84C43.4201 14.3467 44.2601 14.9333 45.0067 15.6C45.7534 16.2667 46.3401 17.0533 46.7667 17.96C47.2201 18.84 47.4467 19.8667 47.4467 21.04C47.4467 22.5333 47.1667 23.8133 46.6067 24.88C46.0467 25.9467 45.2601 26.8267 44.2467 27.52C43.2334 28.1867 42.0601 28.68 40.7267 29C39.3934 29.32 37.9534 29.48 36.4067 29.48C35.0467 29.48 33.7134 29.32 32.4067 29C31.1267 28.7067 29.9267 28.2667 28.8067 27.68C27.6867 27.0667 26.6867 26.32 25.8067 25.44L28.2867 22.52C28.9534 23.1333 29.7267 23.6533 30.6067 24.08C31.5134 24.48 32.4734 24.7867 33.4867 25C34.5001 25.2133 35.5001 25.32 36.4867 25.32C37.2601 25.32 38.0067 25.24 38.7267 25.08C39.4467 24.8933 40.1001 24.6267 40.6867 24.28C41.2734 23.9333 41.7401 23.5067 42.0867 23C42.4334 22.4667 42.6067 21.84 42.6067 21.12C42.6067 20.4 42.3934 19.7733 41.9667 19.24C41.5401 18.7067 40.9534 18.2267 40.2067 17.8C39.4867 17.3467 38.6601 16.9333 37.7267 16.56C36.8201 16.16 35.8734 15.7733 34.8867 15.4C33.9267 15.0267 32.9801 14.6 32.0467 14.12C31.1401 13.64 30.3134 13.1067 29.5667 12.52C28.8467 11.9067 28.2601 11.2 27.8067 10.4C27.3801 9.6 27.1667 8.66667 27.1667 7.6C27.1667 6.32 27.4601 5.24 28.0467 4.36C28.6601 3.45333 29.4601 2.73333 30.4467 2.2C31.4334 1.64 32.5134 1.24 33.6867 0.999998C34.8601 0.733332 36.0201 0.599998 37.1667 0.599998C37.9934 0.599998 38.8334 0.653332 39.6867 0.759999C40.5401 0.866666 41.3801 1.02667 42.2067 1.24C43.0601 1.45333 43.8467 1.73333 44.5667 2.08L43.3267 5.76ZM68.978 21.56C68.978 23.2667 68.578 24.7067 67.778 25.88C66.978 27.0533 65.8713 27.9467 64.458 28.56C63.0446 29.1467 61.4046 29.44 59.538 29.44C57.698 29.44 56.058 29.1467 54.618 28.56C53.178 27.9467 52.0446 27.0533 51.218 25.88C50.418 24.7067 50.018 23.2667 50.018 21.56V0.999998H54.458V20.68C54.458 21.64 54.6446 22.44 55.018 23.08C55.418 23.72 55.978 24.2 56.698 24.52C57.4446 24.84 58.378 25 59.498 25C60.5646 25 61.4713 24.8267 62.218 24.48C62.9646 24.1067 63.538 23.6 63.938 22.96C64.338 22.2933 64.538 21.5067 64.538 20.6V0.999998H68.978V21.56ZM83.2245 8.92C83.2245 6.14667 84.0645 4.02667 85.7445 2.56C87.4512 1.06667 89.8112 0.32 92.8245 0.32C95.8379 0.32 98.1579 1.09333 99.7845 2.64C101.411 4.16 102.225 6.26666 102.225 8.96V21.36C102.225 23.0133 101.838 24.4533 101.065 25.68C100.318 26.88 99.2379 27.8133 97.8245 28.48C96.4112 29.12 94.7179 29.44 92.7445 29.44C90.9312 29.44 89.3045 29.1333 87.8645 28.52C86.4245 27.9067 85.2912 27 84.4645 25.8C83.6379 24.6 83.2245 23.12 83.2245 21.36V8.92ZM87.6645 20.64C87.6645 21.6 87.8645 22.4 88.2645 23.04C88.6912 23.68 89.2779 24.1733 90.0245 24.52C90.7979 24.84 91.6912 25 92.7045 25C93.7445 25 94.6379 24.8267 95.3845 24.48C96.1312 24.1333 96.7179 23.64 97.1445 23C97.5712 22.3333 97.7845 21.5333 97.7845 20.6V10.08C97.7845 8.85333 97.6112 7.86666 97.2645 7.12C96.9445 6.37333 96.4112 5.82667 95.6645 5.48C94.9179 5.10667 93.9445 4.92 92.7445 4.92C91.6245 4.92 90.6912 5.09333 89.9445 5.44C89.1979 5.78667 88.6245 6.34667 88.2245 7.12C87.8512 7.86666 87.6645 8.85333 87.6645 10.08V20.64ZM122.013 5.76C121.426 5.52 120.773 5.32 120.053 5.16C119.333 5 118.613 4.88 117.893 4.8C117.173 4.72 116.466 4.68 115.773 4.68C115.24 4.68 114.666 4.72 114.053 4.8C113.466 4.88 112.893 5.02666 112.333 5.24C111.8 5.45333 111.36 5.74667 111.013 6.12C110.666 6.46667 110.493 6.92 110.493 7.48C110.493 8.06667 110.706 8.58667 111.133 9.04C111.586 9.46667 112.173 9.86667 112.893 10.24C113.64 10.6133 114.48 10.9733 115.413 11.32C116.346 11.6667 117.306 12.0533 118.293 12.48C119.306 12.88 120.266 13.3333 121.173 13.84C122.106 14.3467 122.946 14.9333 123.693 15.6C124.44 16.2667 125.026 17.0533 125.453 17.96C125.906 18.84 126.133 19.8667 126.133 21.04C126.133 22.5333 125.853 23.8133 125.293 24.88C124.733 25.9467 123.946 26.8267 122.933 27.52C121.92 28.1867 120.746 28.68 119.413 29C118.08 29.32 116.64 29.48 115.093 29.48C113.733 29.48 112.4 29.32 111.093 29C109.813 28.7067 108.613 28.2667 107.493 27.68C106.373 27.0667 105.373 26.32 104.493 25.44L106.973 22.52C107.64 23.1333 108.413 23.6533 109.293 24.08C110.2 24.48 111.16 24.7867 112.173 25C113.186 25.2133 114.186 25.32 115.173 25.32C115.946 25.32 116.693 25.24 117.413 25.08C118.133 24.8933 118.786 24.6267 119.373 24.28C119.96 23.9333 120.426 23.5067 120.773 23C121.12 22.4667 121.293 21.84 121.293 21.12C121.293 20.4 121.08 19.7733 120.653 19.24C120.226 18.7067 119.64 18.2267 118.893 17.8C118.173 17.3467 117.346 16.9333 116.413 16.56C115.506 16.16 114.56 15.7733 113.573 15.4C112.613 15.0267 111.666 14.6 110.733 14.12C109.826 13.64 109 13.1067 108.253 12.52C107.533 11.9067 106.946 11.2 106.493 10.4C106.066 9.6 105.853 8.66667 105.853 7.6C105.853 6.32 106.146 5.24 106.733 4.36C107.346 3.45333 108.146 2.73333 109.133 2.2C110.12 1.64 111.2 1.24 112.373 0.999998C113.546 0.733332 114.706 0.599998 115.853 0.599998C116.68 0.599998 117.52 0.653332 118.373 0.759999C119.226 0.866666 120.066 1.02667 120.893 1.24C121.746 1.45333 122.533 1.73333 123.253 2.08L122.013 5.76ZM150.254 5.44V29H145.854V5.44H139.054V0.999998H157.134V5.44H150.254ZM159.416 29V0.999998H174.496V5.4H163.856V12.44H170.576L169.336 16.64H163.856V24.96H174.456V29H159.416ZM194.332 5.76C193.745 5.52 193.092 5.32 192.372 5.16C191.652 5 190.932 4.88 190.212 4.8C189.492 4.72 188.785 4.68 188.092 4.68C187.559 4.68 186.985 4.72 186.372 4.8C185.785 4.88 185.212 5.02666 184.652 5.24C184.119 5.45333 183.679 5.74667 183.332 6.12C182.985 6.46667 182.812 6.92 182.812 7.48C182.812 8.06667 183.025 8.58667 183.452 9.04C183.905 9.46667 184.492 9.86667 185.212 10.24C185.959 10.6133 186.799 10.9733 187.732 11.32C188.665 11.6667 189.625 12.0533 190.612 12.48C191.625 12.88 192.585 13.3333 193.492 13.84C194.425 14.3467 195.265 14.9333 196.012 15.6C196.759 16.2667 197.345 17.0533 197.772 17.96C198.225 18.84 198.452 19.8667 198.452 21.04C198.452 22.5333 198.172 23.8133 197.612 24.88C197.052 25.9467 196.265 26.8267 195.252 27.52C194.239 28.1867 193.065 28.68 191.732 29C190.399 29.32 188.959 29.48 187.412 29.48C186.052 29.48 184.719 29.32 183.412 29C182.132 28.7067 180.932 28.2667 179.812 27.68C178.692 27.0667 177.692 26.32 176.812 25.44L179.292 22.52C179.959 23.1333 180.732 23.6533 181.612 24.08C182.519 24.48 183.479 24.7867 184.492 25C185.505 25.2133 186.505 25.32 187.492 25.32C188.265 25.32 189.012 25.24 189.732 25.08C190.452 24.8933 191.105 24.6267 191.692 24.28C192.279 23.9333 192.745 23.5067 193.092 23C193.439 22.4667 193.612 21.84 193.612 21.12C193.612 20.4 193.399 19.7733 192.972 19.24C192.545 18.7067 191.959 18.2267 191.212 17.8C190.492 17.3467 189.665 16.9333 188.732 16.56C187.825 16.16 186.879 15.7733 185.892 15.4C184.932 15.0267 183.985 14.6 183.052 14.12C182.145 13.64 181.319 13.1067 180.572 12.52C179.852 11.9067 179.265 11.2 178.812 10.4C178.385 9.6 178.172 8.66667 178.172 7.6C178.172 6.32 178.465 5.24 179.052 4.36C179.665 3.45333 180.465 2.73333 181.452 2.2C182.439 1.64 183.519 1.24 184.692 0.999998C185.865 0.733332 187.025 0.599998 188.172 0.599998C188.999 0.599998 189.839 0.653332 190.692 0.759999C191.545 0.866666 192.385 1.02667 193.212 1.24C194.065 1.45333 194.852 1.73333 195.572 2.08L194.332 5.76ZM209.268 5.44V29H204.868V5.44H198.068V0.999998H216.148V5.44H209.268Z" fill="black"/>
</svg>
